<?xml version="1.0" standalone="no"?>
<!DOCTYPE svg PUBLIC "-//W3C//DTD SVG 20010904//EN"
 "http://www.w3.org/TR/2001/REC-SVG-20010904/DTD/svg10.dtd">
<svg version="1.0" xmlns="http://www.w3.org/2000/svg"
 width="554.000000pt" height="554.000000pt" viewBox="0 0 554.000000 554.000000"
 preserveAspectRatio="xMidYMid meet">

<g transform="translate(0.000000,554.000000) scale(0.100000,-0.100000)"
fill="#ffffff" stroke="none">
<path d="M2565 5524 c-964 -80 -1804 -637 -2246 -1489 -219 -422 -321 -870
-306 -1350 17 -540 170 -1017 468 -1460 740 -1099 2153 -1517 3376 -999 560
237 1037 669 1336 1209 152 276 260 594 312 925 23 140 31 531 15 687 -33 333
-118 628 -270 939 -266 542 -702 981 -1249 1254 -266 134 -525 214 -833 261
-130 19 -482 33 -603 23z m364 -85 c185 -11 335 -34 511 -79 907 -229 1645
-946 1905 -1849 433 -1507 -507 -3055 -2046 -3370 -342 -70 -755 -66 -1104 10
-309 68 -635 207 -905 387 -435 290 -791 718 -986 1189 -232 558 -272 1146
-118 1732 228 869 897 1574 1759 1855 255 83 439 114 795 134 14 1 99 -3 189
-9z"/>
<path d="M2734 5223 c-21 -54 -40 -101 -42 -105 -2 -5 6 -8 17 -8 13 0 25 9
31 24 8 22 13 24 52 19 24 -3 44 -9 46 -13 9 -23 30 -42 44 -39 14 3 10 21
-24 112 -35 92 -44 107 -62 107 -19 0 -29 -15 -62 -97z m84 -29 c-4 -3 -17 -4
-30 -2 -24 3 -24 4 -10 38 l14 35 16 -32 c9 -18 13 -35 10 -39z"/>
<path d="M2491 5301 c-8 -5 -12 -24 -11 -52 4 -74 1 -107 -13 -121 -18 -17
-10 -88 9 -88 8 0 14 10 14 24 0 26 28 36 101 36 32 0 39 -3 39 -20 0 -11 7
-20 15 -20 18 0 21 76 3 82 -6 2 -13 37 -16 86 l-5 82 -61 0 c-33 0 -67 -4
-75 -9z m99 -50 c0 -15 3 -49 6 -75 l7 -46 -42 0 -41 0 0 69 c0 72 4 79 48 80
18 1 22 -4 22 -28z"/>
<path d="M2967 5293 c-3 -10 -8 -49 -12 -88 -3 -38 -9 -78 -11 -87 -4 -13 0
-18 14 -18 21 0 32 18 32 55 0 21 3 22 44 18 53 -6 86 19 86 67 0 37 -27 56
-97 65 -44 6 -52 4 -56 -12z m107 -46 c14 -24 -14 -46 -49 -39 -20 3 -25 10
-25 34 0 27 3 29 31 26 18 -2 37 -11 43 -21z"/>
<path d="M2365 5244 c-11 -78 -15 -79 -52 -24 -31 46 -55 61 -67 42 -2 -4 18
-37 45 -73 48 -65 56 -99 23 -99 -8 0 -14 -7 -14 -15 0 -19 34 -20 49 -1 11
14 61 178 61 204 0 6 -8 12 -19 12 -15 0 -20 -10 -26 -46z"/>
<path d="M3207 5259 c-26 -15 -47 -63 -47 -108 0 -79 84 -127 143 -81 15 12
27 25 27 30 0 16 -32 20 -46 5 -18 -18 -55 -20 -72 -3 -7 7 -12 27 -12 45 0
79 54 119 96 70 29 -33 58 -28 42 8 -18 40 -89 58 -131 34z"/>
<path d="M2080 5222 c-90 -45 -50 -202 52 -202 44 0 88 35 88 70 0 30 -36 26
-44 -4 -12 -47 -66 -44 -91 5 -29 55 -12 109 33 109 16 0 33 -5 39 -11 13 -13
33 -4 33 15 0 13 -41 36 -63 36 -7 0 -28 -8 -47 -18z"/>
<path d="M3407 5223 c-13 -13 -7 -21 24 -32 18 -6 29 -16 27 -23 -3 -7 -13
-44 -23 -81 -16 -59 -16 -70 -4 -77 20 -13 25 -4 47 80 18 75 19 75 52 75 56
0 45 21 -22 39 -35 10 -70 19 -79 22 -8 2 -18 1 -22 -3z"/>
<path d="M1836 5145 c-40 -21 -55 -44 -56 -82 0 -71 40 -123 95 -123 47 0 88
22 103 55 16 34 15 47 -5 96 -11 30 -25 45 -49 55 -42 18 -52 17 -88 -1z m97
-68 c22 -44 16 -81 -14 -98 -31 -16 -66 -3 -84 31 -31 60 -7 114 49 108 25 -2
35 -11 49 -41z"/>
<path d="M3600 5068 c-19 -50 -36 -95 -38 -98 -3 -6 117 -50 139 -50 30 0 52
36 45 75 -4 21 -3 35 3 35 16 0 33 39 26 61 -4 12 -26 29 -52 40 -89 38 -84
41 -123 -63z m130 17 c26 -31 -27 -49 -64 -22 -13 9 -16 20 -12 35 6 18 11 19
36 11 16 -6 34 -17 40 -24z m-55 -62 c36 -17 47 -49 20 -59 -13 -5 -85 13 -85
21 0 7 23 55 26 55 2 0 19 -8 39 -17z"/>
<path d="M1638 5060 l-57 -30 37 -77 c56 -115 57 -117 74 -107 14 8 10 21 -22
90 l-37 81 44 22 c40 19 52 40 27 47 -5 2 -35 -10 -66 -26z"/>
<path d="M3821 4971 c-22 -49 -41 -92 -41 -96 0 -6 126 -65 141 -65 5 0 9 6 9
13 0 8 -23 24 -50 37 -42 20 -49 27 -44 44 11 36 20 38 62 17 48 -24 62 -26
62 -8 0 7 -20 23 -45 35 -47 23 -51 28 -35 52 8 12 16 11 61 -8 41 -17 55 -19
61 -9 5 8 -12 22 -55 44 -34 18 -67 32 -73 33 -6 0 -30 -40 -53 -89z"/>
<path d="M2595 4979 c-937 -72 -1743 -749 -1971 -1654 -54 -216 -68 -333 -67
-565 1 -372 70 -664 233 -989 312 -623 882 -1052 1580 -1188 124 -25 156 -27
395 -27 284 -1 353 7 575 65 156 41 281 89 431 165 914 463 1390 1475 1164
2478 -179 797 -812 1448 -1604 1651 -247 63 -484 84 -736 64z m386 -69 c901
-91 1651 -733 1874 -1603 49 -191 67 -341 67 -547 -1 -344 -69 -634 -222 -945
-114 -232 -236 -400 -427 -586 -189 -185 -342 -292 -578 -405 -295 -142 -588
-207 -925 -207 -252 -1 -467 35 -698 115 -750 258 -1296 908 -1427 1698 -22
133 -30 411 -16 545 77 716 485 1335 1106 1678 378 208 822 299 1246 257z"/>
<path d="M1890 4245 c-244 -119 -449 -220 -454 -225 -7 -7 -5 -10 4 -10 8 0
382 -57 830 -126 l815 -127 442 224 c244 123 443 226 443 229 0 6 -1581 250
-1615 250 -11 0 -220 -97 -465 -215z"/>
<path d="M3960 3960 c0 -211 -2 -234 -20 -270 -11 -22 -20 -50 -20 -62 1 -22
1 -22 15 -4 12 16 13 12 10 -40 -3 -47 -2 -52 4 -24 l8 35 2 -42 c0 -24 6 -43
11 -43 6 0 11 19 11 43 l2 42 8 -35 c6 -26 7 -20 3 25 -4 55 -4 58 10 40 15
-20 15 -20 16 3 0 12 -7 39 -16 60 -21 50 -22 65 -23 300 -1 127 -5 202 -11
202 -6 0 -10 -83 -10 -230z"/>
<path d="M2040 3712 l0 -169 93 -22 c267 -65 629 -84 872 -47 108 17 333 64
348 73 8 5 10 303 1 303 -3 0 -64 -30 -136 -66 l-131 -67 -496 77 c-273 42
-508 79 -523 82 l-28 6 0 -170z"/>
<path d="M4589 3501 c-97 -100 -175 -145 -314 -182 -73 -20 -116 -22 -500 -29
-406 -7 -423 -8 -516 -33 -199 -52 -329 -126 -465 -263 l-82 -82 -38 40 c-111
114 -310 224 -483 267 -140 35 -224 43 -566 51 -295 7 -351 11 -425 30 -112
28 -209 76 -300 149 -61 49 -76 57 -78 42 -2 -10 47 -445 108 -967 60 -522
110 -952 110 -956 0 -13 109 -69 182 -94 113 -38 232 -54 503 -64 391 -15 570
-43 728 -111 80 -35 219 -123 256 -163 14 -14 27 -26 30 -26 4 0 36 28 72 63
123 117 302 189 549 222 58 8 220 19 360 25 140 6 293 15 340 21 188 23 318
68 399 136 l34 29 94 975 c51 536 92 982 91 991 -2 12 -28 -9 -89 -71z m-108
-1016 l-79 -830 -28 -22 c-91 -72 -277 -104 -719 -123 -376 -16 -544 -47 -720
-135 -50 -25 -114 -65 -142 -90 l-52 -46 -67 46 c-127 87 -257 141 -422 175
-97 19 -247 32 -617 50 -110 5 -234 17 -275 26 -74 15 -215 68 -225 84 -4 7
-195 1635 -195 1666 0 10 16 6 58 -15 148 -75 249 -90 671 -101 273 -7 354
-12 431 -28 225 -48 373 -128 537 -291 l90 -90 46 63 c96 131 254 253 397 307
140 54 208 61 645 69 436 8 477 12 602 63 33 13 78 36 99 51 27 18 40 22 42
14 1 -7 -34 -386 -77 -843z"/>
<path d="M2100 2255 l0 -477 273 5 c172 3 286 9 311 17 54 16 129 94 149 155
22 64 21 149 -2 200 -19 43 -78 101 -118 116 l-26 10 40 37 c72 66 96 148 69
235 -21 70 -60 115 -125 145 -55 26 -61 27 -313 30 l-258 4 0 -477z m443 294
c31 -14 47 -48 47 -100 0 -31 -7 -47 -29 -70 -29 -28 -32 -29 -130 -29 l-101
0 0 105 0 105 95 0 c52 0 105 -5 118 -11z m-44 -358 c95 -9 121 -34 121 -115
0 -98 -45 -126 -202 -126 l-88 0 0 125 0 125 48 -1 c26 0 80 -4 121 -8z"/>
<path d="M1220 2245 l0 -465 115 0 115 0 0 190 0 190 125 0 125 0 0 -190 0
-190 115 0 115 0 0 465 0 465 -115 0 -115 0 0 -160 0 -160 -125 0 -125 0 0
160 0 160 -115 0 -115 0 0 -465z"/>
<path d="M2980 2245 l0 -465 115 0 115 0 0 355 0 355 180 0 180 0 0 110 0 110
-295 0 -295 0 0 -465z"/>
<path d="M3652 2698 c3 -7 58 -159 123 -337 112 -306 118 -326 104 -350 -22
-39 -56 -53 -116 -46 l-53 6 0 -94 0 -94 31 -7 c69 -14 172 -7 216 15 72 35
72 35 251 567 l120 353 -116 -3 -116 -3 -37 -140 c-54 -209 -60 -227 -65 -222
-3 3 -27 85 -53 183 l-48 179 -123 3 c-96 2 -121 0 -118 -10z"/>
<path d="M2377 930 c-16 -17 -35 -30 -43 -30 -8 0 -14 -10 -14 -26 0 -27 6
-28 53 -9 15 6 17 0 17 -69 l0 -76 30 0 30 0 0 120 c0 118 0 120 -22 120 -13
-1 -36 -14 -51 -30z"/>
<path d="M2574 949 c-63 -18 -70 -106 -12 -139 22 -12 33 -12 58 -3 34 13 33
13 20 -21 -9 -25 -50 -38 -50 -16 0 13 -31 13 -50 0 -23 -16 23 -50 67 -50 47
0 72 16 89 55 45 109 -21 203 -122 174z m54 -38 c8 -5 12 -21 10 -37 -2 -23
-8 -29 -28 -29 -18 0 -26 6 -28 23 -3 22 13 52 27 52 3 0 12 -4 19 -9z"/>
<path d="M2787 948 c-32 -11 -46 -52 -28 -80 10 -16 9 -23 -3 -37 -20 -21 -21
-61 -3 -85 20 -27 108 -34 142 -12 29 19 35 75 10 96 -13 11 -13 15 0 33 19
28 19 40 -2 65 -22 24 -78 34 -116 20z m71 -54 c4 -27 -26 -40 -46 -20 -13 13
-13 18 -2 31 18 21 44 15 48 -11z m-3 -99 c0 -25 -4 -30 -25 -30 -28 0 -39 27
-19 51 20 24 44 13 44 -21z"/>
<path d="M3012 949 c-44 -13 -61 -49 -39 -83 14 -21 14 -26 2 -36 -23 -19 -19
-76 7 -94 33 -23 113 -21 138 4 24 24 26 67 4 91 -12 14 -13 21 -3 37 17 27 4
69 -24 77 -43 13 -52 13 -85 4z m58 -45 c11 -12 11 -18 -2 -30 -18 -18 -48 -8
-48 15 0 33 28 42 50 15z m0 -89 c6 -8 10 -22 8 -32 -5 -25 -51 -25 -56 0 -8
42 23 63 48 32z"/>
<path d="M4024 4864 c-50 -77 -54 -88 -41 -102 14 -13 18 -10 41 27 28 44 32
44 80 8 19 -14 19 -15 -2 -51 -22 -37 -22 -56 1 -56 7 0 36 39 66 86 43 69 51
88 40 95 -21 13 -23 12 -42 -21 -21 -36 -30 -37 -68 -9 l-30 21 21 33 c24 39
24 41 5 49 -11 4 -31 -18 -71 -80z"/>
<path d="M1207 4840 c-3 -14 -14 -20 -32 -20 -15 0 -24 -4 -20 -10 15 -25 75
6 75 38 0 20 -17 13 -23 -8z"/>
<path d="M1267 4838 c-14 -11 -15 -23 -7 -83 5 -38 9 -76 10 -84 0 -12 -37 29
-76 84 -12 17 -16 18 -28 5 -12 -13 -6 -26 51 -98 55 -70 68 -81 80 -70 12 10
14 27 8 90 -3 43 -4 78 -2 78 3 0 22 -23 43 -50 33 -43 40 -48 52 -36 12 12 6
24 -43 88 -32 40 -61 76 -65 81 -3 4 -14 1 -23 -5z"/>
<path d="M4226 4728 c-58 -74 -64 -85 -50 -98 10 -10 17 -12 22 -4 4 6 17 23
29 39 l23 27 35 -26 35 -27 -30 -37 c-28 -34 -29 -38 -14 -49 15 -11 25 -1 80
69 52 66 62 84 52 96 -10 12 -16 9 -40 -17 -30 -34 -45 -33 -81 7 -16 17 -16
20 -2 32 28 23 36 47 20 60 -11 9 -26 -4 -79 -72z"/>
<path d="M1071 4676 c-12 -14 -6 -70 16 -151 3 -13 -12 -4 -46 30 -39 37 -54
46 -63 37 -8 -8 5 -29 56 -87 37 -41 71 -75 76 -75 24 0 28 28 14 94 -8 39
-13 74 -11 80 2 5 21 -12 42 -37 39 -47 58 -57 70 -36 6 8 -114 147 -136 157
-3 1 -12 -4 -18 -12z"/>
<path d="M4415 4570 l-69 -70 49 -50 c56 -57 93 -65 119 -28 23 32 20 53 -14
91 -16 19 -30 38 -30 43 0 4 12 20 26 35 25 27 26 49 1 49 -7 0 -44 -31 -82
-70z m58 -72 c39 -52 -8 -81 -53 -33 -23 24 -23 25 -5 45 22 24 32 22 58 -12z"/>
<path d="M902 4518 c-16 -16 -15 -41 5 -83 22 -46 12 -53 -31 -20 -32 24 -56
27 -56 5 0 -4 34 -39 75 -76 68 -60 78 -66 91 -52 14 14 12 18 -22 46 -45 37
-31 50 36 32 36 -10 45 -9 58 4 14 14 13 16 -14 26 -16 6 -45 12 -64 13 -33 1
-38 5 -48 39 -7 20 -9 43 -6 51 7 20 -10 29 -24 15z"/>
<path d="M4560 4425 c-66 -67 -73 -77 -59 -90 13 -13 23 -7 89 60 66 67 73 77
59 90 -13 13 -23 7 -89 -60z"/>
<path d="M4645 4344 c-94 -74 -92 -72 -74 -89 13 -13 27 -14 89 -5 40 6 75 9
77 7 3 -3 -55 -54 -96 -84 -2 -1 2 -9 9 -18 10 -13 22 -6 86 46 84 69 90 75
75 93 -8 9 -25 10 -63 5 -29 -4 -66 -8 -82 -8 -28 -1 -27 0 23 40 48 38 59 58
35 66 -5 2 -40 -22 -79 -53z"/>
<path d="M4777 4393 c-6 -11 9 -49 23 -58 6 -4 18 -4 28 0 14 5 12 8 -8 19
-14 7 -24 20 -24 29 2 17 -11 23 -19 10z"/>
<path d="M737 4319 c-9 -5 -24 -24 -33 -41 -28 -54 -3 -113 63 -147 72 -37
162 39 132 111 -9 23 -14 26 -30 18 -16 -9 -17 -14 -7 -35 9 -21 8 -28 -7 -45
-25 -27 -57 -25 -94 6 -49 41 -39 104 16 104 16 0 23 6 23 20 0 22 -32 27 -63
9z"/>
<path d="M604 4123 c-14 -9 -78 -113 -73 -117 19 -14 170 -96 178 -96 12 0 71
105 71 128 0 30 -35 55 -68 49 -22 -5 -30 -1 -37 16 -10 23 -51 34 -71 20z
m51 -42 c6 -10 -24 -81 -34 -81 -3 0 -14 7 -24 15 -18 13 -18 15 -1 44 18 30
47 41 59 22z m81 -45 c7 -18 -23 -76 -39 -76 -6 0 -20 6 -29 13 -15 12 -15 15
4 45 21 33 55 43 64 18z"/>
<path d="M4947 3929 c-49 -70 -65 -80 -87 -54 -17 21 -30 19 -30 -5 0 -34 34
-43 146 -35 91 6 103 9 95 23 -7 12 -22 15 -66 13 l-57 -3 23 32 c52 69 50 65
36 83 -10 14 -18 7 -60 -54z"/>
<path d="M495 3906 c-35 -15 -55 -52 -55 -99 0 -45 22 -72 75 -92 37 -15 50
-16 74 -5 39 16 63 54 65 100 1 45 -16 67 -69 91 -47 22 -51 22 -90 5z m93
-52 c29 -19 36 -37 28 -69 -10 -38 -50 -50 -95 -28 -51 25 -63 64 -31 98 26
28 53 28 98 -1z"/>
<path d="M4998 3742 c-49 -19 -88 -38 -88 -41 0 -3 4 -12 9 -19 7 -11 15 -11
46 2 50 21 49 21 64 -19 15 -42 11 -50 -34 -65 -37 -12 -40 -17 -27 -37 6 -10
30 -4 98 23 101 41 106 44 95 63 -7 11 -15 11 -41 2 -45 -15 -47 -15 -59 20
-16 45 -15 46 24 60 23 9 35 19 33 29 -5 24 -27 21 -120 -18z"/>
<path d="M359 3643 c-12 -38 -24 -74 -27 -80 -2 -7 3 -13 12 -13 9 0 21 11 26
25 12 31 12 31 95 0 69 -26 95 -27 95 -2 0 7 -32 24 -77 38 l-78 26 3 36 c5
64 -23 46 -49 -30z"/>
<path d="M5086 3514 c-43 -13 -81 -26 -85 -29 -15 -16 23 -41 87 -58 39 -11
70 -23 67 -27 -2 -3 -29 -13 -60 -20 -42 -10 -55 -18 -55 -32 0 -23 4 -23 111
9 77 23 89 30 87 47 -2 16 -19 24 -82 41 -44 12 -76 24 -70 27 5 3 35 13 67
22 36 10 57 22 54 29 -6 19 -36 17 -121 -9z"/>
<path d="M312 3478 c-10 -13 -44 -119 -39 -123 5 -5 186 -55 196 -55 6 0 11 9
11 20 0 14 -9 21 -35 26 l-35 6 6 52 c5 41 3 56 -11 69 -19 20 -78 23 -93 5z
m71 -66 c-1 -42 -6 -46 -38 -38 -45 11 -27 81 20 74 16 -2 20 -10 18 -36z"/>
<path d="M5140 3282 c-41 -8 -77 -16 -79 -18 -2 -2 2 -33 9 -69 17 -91 66
-124 107 -72 14 19 22 22 35 13 12 -7 24 -6 42 2 28 12 33 44 20 125 -8 43
-13 44 -134 19z m106 -56 c3 -19 3 -39 -1 -45 -11 -19 -35 -12 -45 15 -18 46
-13 55 32 63 4 0 10 -14 14 -33z m-83 -23 c11 -68 -46 -85 -59 -18 -7 41 0 55
30 55 19 0 24 -7 29 -37z"/>
<path d="M343 3228 c-95 -18 -103 -22 -103 -43 0 -18 19 -35 89 -79 48 -31 91
-56 95 -56 15 0 4 39 -14 51 -16 12 -19 21 -14 53 6 30 13 40 34 48 28 9 49
49 27 47 -7 0 -58 -10 -114 -21z m27 -52 c0 -40 -10 -45 -47 -23 -32 18 -34
22 -17 28 32 13 64 10 64 -5z"/>
<path d="M5200 3043 c-25 -2 -59 -5 -75 -8 l-31 -5 7 -75 c6 -79 11 -91 29
-80 7 4 9 27 4 66 l-7 59 30 0 c26 0 31 -5 37 -31 3 -17 6 -43 6 -56 0 -15 5
-23 13 -20 7 2 12 24 13 58 1 50 3 54 25 54 22 0 24 -5 29 -55 4 -40 9 -55 20
-55 12 0 14 13 11 70 -2 39 -5 73 -8 78 -4 7 -12 7 -103 0z"/>
<path d="M236 3017 c-13 -9 -20 -33 -25 -80 -8 -78 -16 -73 117 -82 l92 -7 0
74 c0 60 -4 78 -18 91 -23 21 -56 22 -72 2 -11 -13 -15 -13 -33 0 -26 18 -38
19 -61 2z m57 -49 c6 -8 7 -27 3 -41 -5 -20 -13 -27 -31 -27 -20 0 -25 5 -25
26 0 54 30 79 53 42z m95 -31 c3 -48 3 -48 -25 -45 -24 2 -28 8 -31 36 -4 37
13 64 37 60 11 -2 17 -17 19 -51z"/>
<path d="M5110 2800 c0 -17 7 -20 40 -20 40 0 40 0 40 -39 0 -52 27 -84 70
-84 44 0 60 24 60 94 0 67 -2 69 -127 69 -76 0 -83 -2 -83 -20z m178 -57 c-3
-33 -6 -38 -28 -38 -22 0 -25 5 -28 38 -3 35 -2 37 28 37 30 0 31 -2 28 -37z"/>
<path d="M380 2730 l0 -60 -30 0 c-30 0 -30 1 -30 55 0 42 -3 55 -15 55 -12 0
-15 -13 -15 -55 0 -51 -2 -55 -24 -55 -24 0 -36 28 -36 86 0 15 -6 24 -15 24
-12 0 -15 -15 -15 -75 l0 -75 111 0 c111 0 111 0 105 23 -3 12 -6 48 -6 80 0
44 -3 57 -15 57 -12 0 -15 -13 -15 -60z"/>
<path d="M5154 2600 c-53 -21 -72 -107 -34 -148 25 -26 36 -28 44 -6 4 11 -1
22 -14 31 -28 20 -26 59 5 79 28 18 85 14 111 -7 20 -17 17 -64 -5 -80 -13
-10 -17 -20 -12 -33 7 -17 9 -17 35 6 23 19 29 33 29 66 0 48 -15 70 -60 89
-36 15 -68 16 -99 3z"/>
<path d="M316 2553 c-54 -7 -101 -15 -104 -17 -2 -3 -2 -12 2 -21 4 -12 14
-14 44 -9 38 6 39 5 46 -26 10 -52 8 -60 -18 -60 -37 0 -56 -10 -56 -29 0 -16
8 -17 73 -9 126 14 137 17 137 39 0 18 -5 19 -49 13 l-49 -6 -4 38 c-7 50 -4
54 38 54 32 0 51 17 42 38 -1 4 -47 2 -102 -5z"/>
<path d="M5073 2354 c-4 -11 14 -34 58 -74 l64 -58 -68 13 c-58 10 -70 10 -74
-2 -3 -8 -3 -16 -1 -19 3 -2 51 -13 106 -23 l102 -18 0 23 c0 15 -19 40 -57
74 l-58 52 53 -6 c29 -4 58 -9 66 -12 8 -3 16 3 18 14 5 18 -4 22 -82 36 -109
20 -119 20 -127 0z"/>
<path d="M398 2309 c-45 -43 -47 -44 -84 -33 -21 6 -40 16 -42 22 -5 17 -32
15 -32 -2 0 -23 28 -45 65 -52 51 -9 52 -22 2 -35 -35 -8 -44 -15 -40 -29 4
-15 10 -16 45 -8 55 12 60 2 16 -34 -39 -31 -53 -78 -23 -78 8 0 15 9 15 20 0
11 4 20 8 20 5 0 17 9 29 19 20 19 21 19 78 -1 31 -10 59 -17 62 -14 11 10
-10 46 -26 46 -26 0 -81 20 -81 30 0 4 17 11 37 15 48 9 53 12 46 31 -4 12
-15 13 -49 8 -27 -4 -44 -2 -44 4 0 7 39 41 78 67 1 1 -1 12 -6 25 -8 23 -9
22 -54 -21z"/>
<path d="M5200 2103 c-1 -43 -13 -46 -92 -24 -91 26 -98 26 -98 2 0 -16 14
-23 75 -37 96 -23 98 -24 85 -58 -8 -21 -7 -28 6 -33 19 -7 17 -11 41 79 18
66 19 78 6 82 -21 9 -23 8 -23 -11z"/>
<path d="M411 2020 c-46 -16 -86 -31 -88 -33 -2 -2 -1 -11 3 -20 3 -10 34 -22
80 -33 41 -10 74 -21 74 -24 0 -4 -27 -15 -60 -25 -62 -19 -65 -21 -52 -42 6
-10 30 -6 103 18 51 18 96 33 97 35 2 1 1 11 -2 22 -5 15 -22 23 -70 32 -92
17 -97 25 -30 47 35 12 59 25 59 34 0 22 -24 20 -114 -11z"/>
<path d="M4946 1894 c-30 -74 -32 -94 -11 -94 8 0 15 4 15 9 0 5 9 30 20 55
18 44 20 45 45 34 29 -13 30 -15 10 -61 -19 -45 -19 -57 -1 -57 8 0 22 20 32
45 17 45 27 52 52 36 11 -6 9 -18 -7 -60 -17 -45 -17 -53 -5 -58 8 -3 16 -4
17 -2 13 18 54 140 48 143 -3 2 -48 20 -98 39 l-92 34 -25 -63z"/>
<path d="M505 1794 c-93 -41 -97 -44 -85 -64 8 -12 14 -12 44 3 l36 17 20 -40
20 -40 -35 -17 c-34 -16 -45 -36 -26 -47 7 -5 176 66 189 79 2 2 0 10 -5 19
-7 13 -13 13 -51 -4 l-43 -20 -15 35 c-20 48 -19 51 26 69 28 11 38 20 34 31
-8 21 -18 19 -109 -21z"/>
<path d="M4856 1694 c-4 -9 -5 -18 -4 -19 2 -1 38 -18 81 -38 l78 -36 -15 -30
c-14 -26 -14 -30 -1 -35 22 -8 92 132 75 148 -9 8 -14 8 -17 0 -2 -6 -9 -19
-16 -28 -11 -16 -19 -14 -90 19 -43 19 -80 35 -81 35 -2 0 -7 -7 -10 -16z"/>
<path d="M1640 675 c-10 -13 -4 -37 43 -148 l55 -132 162 -58 163 -58 128 71
c97 53 129 76 129 91 0 32 -35 23 -151 -42 -90 -49 -115 -59 -139 -54 -17 4
-32 10 -35 15 -3 4 45 34 106 66 110 57 131 76 111 96 -8 8 -26 5 -64 -11 -29
-13 -58 -25 -64 -27 -6 -3 -19 13 -29 36 -11 24 -25 40 -35 40 -28 0 -31 -27
-8 -66 21 -36 21 -37 2 -51 -24 -19 -95 -55 -98 -51 -1 2 -12 29 -24 61 l-22
58 45 19 c44 19 59 45 31 56 -7 3 -30 -2 -51 -10 -21 -9 -38 -16 -39 -16 -1 0
-15 27 -31 60 -19 41 -34 60 -47 60 -27 0 -23 -25 27 -150 24 -63 43 -115 41
-117 -1 -2 -16 2 -33 7 -26 9 -36 26 -84 137 -30 70 -59 128 -65 130 -6 2 -17
-3 -24 -12z"/>
<path d="M3736 667 c-8 -12 -22 -39 -31 -61 -15 -34 -19 -37 -43 -31 -52 13
-76 11 -80 -7 -2 -13 8 -22 38 -34 46 -19 48 -29 16 -106 l-16 -36 -55 30
c-30 16 -55 33 -55 36 1 4 7 18 15 32 22 38 19 70 -5 70 -13 0 -26 -12 -37
-35 -9 -19 -21 -35 -25 -35 -5 0 -31 10 -58 21 -27 12 -56 19 -65 15 -36 -13
-10 -38 102 -98 l117 -62 -33 -13 c-32 -13 -36 -12 -158 53 -115 61 -126 65
-141 50 -10 -10 -13 -19 -7 -25 6 -5 66 -41 135 -79 l124 -70 163 57 162 56
55 133 c55 132 60 162 26 162 -12 0 -31 -33 -71 -126 -46 -109 -57 -128 -84
-139 -16 -8 -31 -12 -33 -10 -2 2 17 56 42 120 25 64 46 123 46 130 0 24 -29
25 -44 2z"/>
<path d="M2533 463 c-24 -9 -13 -29 71 -128 l84 -100 -31 -3 c-29 -3 -41 5
-128 99 -70 76 -100 101 -112 96 -9 -3 -17 -13 -17 -21 0 -8 43 -62 95 -120
l96 -106 174 0 173 0 96 106 c53 58 96 112 96 120 0 8 -7 17 -17 21 -12 5 -42
-21 -112 -96 -89 -96 -98 -103 -130 -99 l-33 3 87 92 c82 88 99 120 68 130 -7
3 -34 -16 -60 -40 l-48 -45 -33 29 c-62 55 -93 22 -37 -40 l34 -38 -42 -41
c-24 -23 -45 -42 -48 -42 -3 0 -22 21 -43 46 l-39 46 38 35 c34 31 36 36 22
50 -14 15 -18 14 -43 -3 -15 -10 -33 -23 -41 -29 -11 -8 -22 -1 -45 28 -34 41
-56 57 -75 50z"/>
</g>
</svg>
